<?xml version="1.0" encoding="UTF-8"?>
<svg xmlns="http://www.w3.org/2000/svg" xmlns:xlink="http://www.w3.org/1999/xlink" width="277.154pt" height="257.499pt" viewBox="0 0 277.154 257.499">
<defs>
<g>
<g id="glyph-0-0">
<path d="M 2.8125 -3.03125 L 3.734375 -3.03125 C 4.375 -3.03125 4.5 -2.921875 4.5 -2.625 C 4.5 -2.5625 4.46875 -2.375 4.4375 -2.21875 C 4.421875 -2.171875 4.40625 -2.125 4.40625 -2.09375 C 4.40625 -2.09375 4.40625 -1.984375 4.53125 -1.984375 C 4.640625 -1.984375 4.640625 -2.046875 4.6875 -2.171875 L 5.15625 -4.0625 C 5.1875 -4.1875 5.1875 -4.203125 5.1875 -4.25 C 5.1875 -4.3125 5.140625 -4.359375 5.0625 -4.359375 C 4.96875 -4.359375 4.953125 -4.3125 4.921875 -4.140625 C 4.734375 -3.421875 4.453125 -3.3125 3.734375 -3.3125 L 2.890625 -3.3125 C 3.015625 -3.859375 3.4375 -5.5625 3.484375 -5.671875 C 3.546875 -5.796875 3.609375 -5.828125 3.90625 -5.828125 L 5.21875 -5.828125 C 6.34375 -5.828125 6.59375 -5.546875 6.59375 -4.828125 C 6.59375 -4.546875 6.546875 -4.28125 6.546875 -4.21875 C 6.546875 -4.140625 6.59375 -4.078125 6.671875 -4.078125 C 6.78125 -4.078125 6.796875 -4.140625 6.8125 -4.3125 L 7 -5.96875 C 7 -6.09375 6.90625 -6.09375 6.734375 -6.09375 L 2.109375 -6.09375 C 1.953125 -6.09375 1.84375 -6.09375 1.84375 -5.9375 C 1.84375 -5.828125 1.9375 -5.828125 2.125 -5.828125 C 2.15625 -5.828125 2.328125 -5.828125 2.46875 -5.796875 C 2.65625 -5.78125 2.671875 -5.734375 2.671875 -5.65625 C 2.671875 -5.625 2.671875 -5.609375 2.625 -5.453125 L 1.4375 -0.6875 C 1.359375 -0.359375 1.34375 -0.28125 0.65625 -0.28125 C 0.5 -0.28125 0.390625 -0.28125 0.390625 -0.109375 C 0.390625 0 0.484375 0 0.640625 0 L 5.375 0 C 5.546875 0 5.5625 0 5.59375 -0.03125 C 5.609375 -0.046875 5.625 -0.046875 5.671875 -0.171875 C 5.78125 -0.40625 6.546875 -2.109375 6.546875 -2.203125 C 6.546875 -2.265625 6.5 -2.3125 6.421875 -2.3125 C 6.34375 -2.3125 6.34375 -2.3125 6.25 -2.09375 C 5.6875 -0.84375 5.3125 -0.28125 3.828125 -0.28125 L 2.453125 -0.28125 C 2.328125 -0.28125 2.3125 -0.28125 2.28125 -0.28125 C 2.1875 -0.296875 2.15625 -0.3125 2.15625 -0.375 C 2.15625 -0.390625 2.15625 -0.40625 2.203125 -0.578125 Z M 2.8125 -3.03125 "/>
</g>
<g id="glyph-1-0">
<path d="M 3.21875 -1.125 L 3 -1.125 C 2.984375 -1.03125 2.921875 -0.640625 2.84375 -0.578125 C 2.796875 -0.53125 2.3125 -0.53125 2.21875 -0.53125 L 1.109375 -0.53125 L 1.875 -1.15625 C 2.078125 -1.328125 2.609375 -1.703125 2.796875 -1.890625 C 2.96875 -2.0625 3.21875 -2.375 3.21875 -2.796875 C 3.21875 -3.546875 2.546875 -3.984375 1.734375 -3.984375 C 0.96875 -3.984375 0.4375 -3.46875 0.4375 -2.90625 C 0.4375 -2.609375 0.6875 -2.5625 0.75 -2.5625 C 0.90625 -2.5625 1.078125 -2.671875 1.078125 -2.890625 C 1.078125 -3.015625 1 -3.21875 0.734375 -3.21875 C 0.875 -3.515625 1.234375 -3.75 1.65625 -3.75 C 2.28125 -3.75 2.609375 -3.28125 2.609375 -2.796875 C 2.609375 -2.375 2.328125 -1.9375 1.921875 -1.546875 L 0.5 -0.25 C 0.4375 -0.1875 0.4375 -0.1875 0.4375 0 L 3.03125 0 Z M 3.21875 -1.125 "/>
</g>
<g id="glyph-2-0">
<path d="M 2.5625 -1.65625 L 2.5625 -2.21875 L 0.09375 -2.21875 L 0.09375 -1.65625 Z M 2.5625 -1.65625 "/>
</g>
<g id="glyph-2-1">
<path d="M 3.828125 -1.0625 C 3.828125 -1.125 3.78125 -1.1875 3.703125 -1.1875 C 3.609375 -1.1875 3.59375 -1.125 3.578125 -1.078125 C 3.28125 -0.171875 2.46875 -0.15625 2.34375 -0.15625 C 1.90625 -0.15625 1.546875 -0.390625 1.34375 -0.703125 C 1.046875 -1.140625 1.03125 -1.671875 1.03125 -2.046875 L 3.59375 -2.046875 C 3.78125 -2.046875 3.828125 -2.046875 3.828125 -2.25 C 3.828125 -3.171875 3.328125 -4.015625 2.171875 -4.015625 C 1.109375 -4.015625 0.265625 -3.078125 0.265625 -1.96875 C 0.265625 -0.796875 1.203125 0.09375 2.296875 0.09375 C 3.390625 0.09375 3.828125 -0.859375 3.828125 -1.0625 Z M 3.21875 -2.265625 L 1.046875 -2.265625 C 1.125 -3.65625 1.921875 -3.796875 2.171875 -3.796875 C 2.671875 -3.796875 3.203125 -3.421875 3.21875 -2.265625 Z M 3.21875 -2.265625 "/>
</g>
<g id="glyph-2-2">
<path d="M 4.90625 0 L 4.90625 -0.28125 C 4.453125 -0.28125 4.21875 -0.28125 4.21875 -0.5625 L 4.21875 -2.28125 C 4.21875 -3.015625 4.21875 -3.28125 3.96875 -3.59375 C 3.765625 -3.84375 3.421875 -3.96875 2.96875 -3.96875 C 2.140625 -3.96875 1.75 -3.34375 1.625 -3.09375 L 1.609375 -3.09375 L 1.609375 -3.96875 L 0.3125 -3.859375 L 0.3125 -3.59375 C 0.921875 -3.59375 1 -3.53125 1 -3.078125 L 1 -0.6875 C 1 -0.28125 0.90625 -0.28125 0.3125 -0.28125 L 0.3125 0 C 0.734375 -0.015625 0.90625 -0.03125 1.34375 -0.03125 C 1.765625 -0.03125 1.890625 -0.015625 2.359375 0 L 2.359375 -0.28125 C 1.765625 -0.28125 1.671875 -0.28125 1.671875 -0.6875 L 1.671875 -2.328125 C 1.671875 -3.28125 2.34375 -3.734375 2.90625 -3.734375 C 3.4375 -3.734375 3.546875 -3.296875 3.546875 -2.765625 L 3.546875 -0.6875 C 3.546875 -0.28125 3.453125 -0.28125 2.859375 -0.28125 L 2.859375 0 C 3.28125 -0.015625 3.453125 -0.03125 3.890625 -0.03125 C 4.3125 -0.03125 4.4375 -0.015625 4.90625 0 Z M 4.90625 0 "/>
</g>
<g id="glyph-2-3">
<path d="M 3.34375 -3.40625 C 3.34375 -3.6875 3.078125 -3.96875 2.671875 -3.96875 C 2.140625 -3.96875 1.765625 -3.59375 1.546875 -3.03125 L 1.546875 -3.96875 L 0.265625 -3.859375 L 0.265625 -3.59375 C 0.875 -3.59375 0.953125 -3.53125 0.953125 -3.078125 L 0.953125 -0.6875 C 0.953125 -0.28125 0.859375 -0.28125 0.265625 -0.28125 L 0.265625 0 C 0.75 -0.015625 0.859375 -0.03125 1.3125 -0.03125 L 2.453125 0 L 2.453125 -0.28125 L 2.28125 -0.28125 C 1.625 -0.28125 1.59375 -0.375 1.59375 -0.703125 L 1.59375 -2.046875 C 1.59375 -2.421875 1.6875 -3.734375 2.71875 -3.734375 C 2.703125 -3.71875 2.5625 -3.609375 2.5625 -3.40625 C 2.5625 -3.15625 2.75 -3 2.953125 -3 C 3.140625 -3 3.34375 -3.140625 3.34375 -3.40625 Z M 3.34375 -3.40625 "/>
</g>
<g id="glyph-2-4">
<path d="M 2.265625 0 L 2.265625 -0.28125 C 1.6875 -0.28125 1.65625 -0.328125 1.65625 -0.671875 L 1.65625 -3.96875 L 0.359375 -3.859375 L 0.359375 -3.59375 C 0.9375 -3.59375 1.015625 -3.53125 1.015625 -3.09375 L 1.015625 -0.6875 C 1.015625 -0.28125 0.921875 -0.28125 0.328125 -0.28125 L 0.328125 0 C 0.71875 -0.015625 0.921875 -0.03125 1.3125 -0.03125 C 1.453125 -0.03125 1.828125 -0.03125 2.265625 0 Z M 1.765625 -5.40625 C 1.765625 -5.671875 1.546875 -5.890625 1.28125 -5.890625 C 1.015625 -5.890625 0.796875 -5.671875 0.796875 -5.40625 C 0.796875 -5.140625 1.015625 -4.921875 1.28125 -4.921875 C 1.546875 -4.921875 1.765625 -5.140625 1.765625 -5.40625 Z M 1.765625 -5.40625 "/>
</g>
<g id="glyph-2-5">
<path d="M 3.828125 -1.0625 C 3.828125 -1.171875 3.734375 -1.171875 3.703125 -1.171875 C 3.609375 -1.171875 3.609375 -1.15625 3.546875 -1 C 3.34375 -0.390625 2.84375 -0.15625 2.390625 -0.15625 C 1.8125 -0.15625 1.078125 -0.625 1.078125 -1.953125 C 1.078125 -3.34375 1.796875 -3.765625 2.328125 -3.765625 C 2.453125 -3.765625 2.9375 -3.75 3.265625 -3.53125 C 3.078125 -3.484375 2.890625 -3.359375 2.890625 -3.109375 C 2.890625 -2.875 3.078125 -2.6875 3.3125 -2.6875 C 3.546875 -2.6875 3.734375 -2.84375 3.734375 -3.125 C 3.734375 -3.671875 3.109375 -4.015625 2.3125 -4.015625 C 1.171875 -4.015625 0.3125 -3.0625 0.3125 -1.9375 C 0.3125 -0.78125 1.234375 0.09375 2.296875 0.09375 C 3.546875 0.09375 3.828125 -0.984375 3.828125 -1.0625 Z M 3.828125 -1.0625 "/>
</g>
<g id="glyph-2-6">
<path d="M 4.90625 0 L 4.90625 -0.28125 C 4.453125 -0.28125 4.21875 -0.28125 4.21875 -0.5625 L 4.21875 -2.28125 C 4.21875 -3.015625 4.21875 -3.28125 3.96875 -3.59375 C 3.765625 -3.84375 3.421875 -3.96875 2.96875 -3.96875 C 2.375 -3.96875 1.921875 -3.65625 1.65625 -3.140625 L 1.640625 -3.140625 L 1.640625 -6.21875 L 0.3125 -6.125 L 0.3125 -5.84375 C 0.921875 -5.84375 1 -5.78125 1 -5.34375 L 1 -0.6875 C 1 -0.28125 0.90625 -0.28125 0.3125 -0.28125 L 0.3125 0 C 0.734375 -0.015625 0.90625 -0.03125 1.34375 -0.03125 C 1.765625 -0.03125 1.890625 -0.015625 2.359375 0 L 2.359375 -0.28125 C 1.765625 -0.28125 1.671875 -0.28125 1.671875 -0.6875 L 1.671875 -2.328125 C 1.671875 -3.28125 2.34375 -3.734375 2.90625 -3.734375 C 3.4375 -3.734375 3.546875 -3.296875 3.546875 -2.765625 L 3.546875 -0.6875 C 3.546875 -0.28125 3.453125 -0.28125 2.859375 -0.28125 L 2.859375 0 C 3.28125 -0.015625 3.453125 -0.03125 3.890625 -0.03125 C 4.3125 -0.03125 4.4375 -0.015625 4.90625 0 Z M 4.90625 0 "/>
</g>
<g id="glyph-2-7">
<path d="M 4.84375 0 L 4.84375 -0.28125 C 4.234375 -0.28125 4.15625 -0.34375 4.15625 -0.78125 L 4.15625 -6.21875 L 2.828125 -6.125 L 2.828125 -5.84375 C 3.4375 -5.84375 3.515625 -5.78125 3.515625 -5.34375 L 3.515625 -3.4375 C 3.46875 -3.484375 3.0625 -3.96875 2.375 -3.96875 C 1.265625 -3.96875 0.3125 -3.078125 0.3125 -1.921875 C 0.3125 -0.8125 1.203125 0.09375 2.265625 0.09375 C 2.921875 0.09375 3.328125 -0.28125 3.484375 -0.46875 L 3.484375 0.09375 Z M 3.484375 -1.078125 C 3.484375 -0.921875 3.484375 -0.890625 3.359375 -0.703125 C 3.078125 -0.296875 2.65625 -0.125 2.3125 -0.125 C 1.921875 -0.125 1.5625 -0.34375 1.328125 -0.71875 C 1.09375 -1.109375 1.078125 -1.625 1.078125 -1.921875 C 1.078125 -2.34375 1.125 -2.8125 1.359375 -3.171875 C 1.5625 -3.46875 1.921875 -3.734375 2.40625 -3.734375 C 2.78125 -3.734375 3.140625 -3.546875 3.375 -3.203125 C 3.484375 -3.0625 3.484375 -3.0625 3.484375 -2.890625 Z M 3.484375 -1.078125 "/>
</g>
<g id="glyph-2-8">
<path d="M 7.46875 0 L 7.46875 -0.28125 C 7.015625 -0.28125 6.796875 -0.28125 6.78125 -0.5625 L 6.78125 -2.28125 C 6.78125 -3.0625 6.78125 -3.3125 6.484375 -3.640625 C 6.296875 -3.859375 5.9375 -3.96875 5.53125 -3.96875 C 4.875 -3.96875 4.4375 -3.59375 4.1875 -3.109375 C 4.078125 -3.640625 3.71875 -3.96875 2.96875 -3.96875 C 2.25 -3.96875 1.8125 -3.5 1.625 -3.078125 L 1.609375 -3.078125 L 1.609375 -3.96875 L 0.3125 -3.859375 L 0.3125 -3.59375 C 0.921875 -3.59375 1 -3.53125 1 -3.078125 L 1 -0.6875 C 1 -0.28125 0.90625 -0.28125 0.3125 -0.28125 L 0.3125 0 C 0.734375 -0.015625 0.90625 -0.03125 1.34375 -0.03125 C 1.765625 -0.03125 1.890625 -0.015625 2.359375 0 L 2.359375 -0.28125 C 1.765625 -0.28125 1.671875 -0.28125 1.671875 -0.6875 L 1.671875 -2.328125 C 1.671875 -3.296875 2.375 -3.734375 2.90625 -3.734375 C 3.40625 -3.734375 3.5625 -3.390625 3.5625 -2.765625 L 3.5625 -0.6875 C 3.5625 -0.28125 3.46875 -0.28125 2.875 -0.28125 L 2.875 0 C 3.296875 -0.015625 3.46875 -0.03125 3.890625 -0.03125 C 4.328125 -0.03125 4.4375 -0.015625 4.921875 0 L 4.921875 -0.28125 C 4.328125 -0.28125 4.21875 -0.28125 4.21875 -0.6875 L 4.21875 -2.328125 C 4.21875 -3.296875 4.921875 -3.734375 5.46875 -3.734375 C 5.953125 -3.734375 6.109375 -3.390625 6.109375 -2.765625 L 6.109375 -0.6875 C 6.109375 -0.28125 6.015625 -0.28125 5.421875 -0.28125 L 5.421875 0 C 5.84375 -0.015625 6.015625 -0.03125 6.453125 -0.03125 C 6.875 -0.03125 7 -0.015625 7.46875 0 Z M 7.46875 0 "/>
</g>
<g id="glyph-2-9">
<path d="M 4.34375 -1.90625 C 4.34375 -3.078125 3.40625 -4.015625 2.3125 -4.015625 C 1.171875 -4.015625 0.265625 -3.0625 0.265625 -1.90625 C 0.265625 -0.796875 1.1875 0.09375 2.296875 0.09375 C 3.4375 0.09375 4.34375 -0.8125 4.34375 -1.90625 Z M 3.5625 -1.984375 C 3.5625 -1.65625 3.5625 -1.140625 3.34375 -0.75 C 3.09375 -0.328125 2.6875 -0.15625 2.3125 -0.15625 C 1.859375 -0.15625 1.484375 -0.375 1.28125 -0.71875 C 1.046875 -1.109375 1.03125 -1.578125 1.03125 -1.984375 C 1.03125 -2.328125 1.03125 -2.828125 1.25 -3.203125 C 1.53125 -3.65625 1.96875 -3.796875 2.296875 -3.796875 C 2.8125 -3.796875 3.171875 -3.5 3.359375 -3.203125 C 3.5625 -2.828125 3.5625 -2.375 3.5625 -1.984375 Z M 3.5625 -1.984375 "/>
</g>
<g id="glyph-2-10">
<path d="M 4.8125 -1.9375 C 4.8125 -3.0625 3.921875 -3.96875 2.875 -3.96875 C 2.390625 -3.96875 1.9375 -3.765625 1.59375 -3.40625 L 1.59375 -3.96875 L 0.265625 -3.859375 L 0.265625 -3.59375 C 0.90625 -3.59375 0.953125 -3.53125 0.953125 -3.140625 L 0.953125 1.046875 C 0.953125 1.46875 0.859375 1.46875 0.265625 1.46875 L 0.265625 1.734375 C 0.6875 1.71875 0.859375 1.71875 1.296875 1.71875 C 1.71875 1.71875 1.84375 1.71875 2.3125 1.734375 L 2.3125 1.46875 C 1.71875 1.46875 1.625 1.46875 1.625 1.046875 L 1.625 -0.4375 C 1.859375 -0.203125 2.15625 0.09375 2.75 0.09375 C 3.828125 0.09375 4.8125 -0.765625 4.8125 -1.9375 Z M 4.03125 -1.9375 C 4.03125 -0.921875 3.421875 -0.125 2.703125 -0.125 C 2.296875 -0.125 1.953125 -0.359375 1.734375 -0.671875 C 1.625 -0.859375 1.625 -0.875 1.625 -1.046875 L 1.625 -3.015625 C 1.921875 -3.53125 2.421875 -3.71875 2.796875 -3.71875 C 3.5 -3.71875 4.03125 -2.90625 4.03125 -1.9375 Z M 4.03125 -1.9375 "/>
</g>
<g id="glyph-2-11">
<path d="M 3.3125 -1.140625 C 3.3125 -1.546875 3.140625 -1.796875 2.9375 -2 C 2.640625 -2.296875 2.3125 -2.359375 1.65625 -2.484375 C 1.421875 -2.53125 0.765625 -2.640625 0.765625 -3.15625 C 0.765625 -3.4375 0.96875 -3.828125 1.78125 -3.828125 C 2.75 -3.828125 2.8125 -3.078125 2.828125 -2.859375 C 2.84375 -2.75 2.84375 -2.6875 2.953125 -2.6875 C 3.078125 -2.6875 3.078125 -2.75 3.078125 -2.921875 L 3.078125 -3.78125 C 3.078125 -3.9375 3.078125 -4.015625 2.984375 -4.015625 C 2.9375 -4.015625 2.921875 -4.015625 2.796875 -3.90625 C 2.78125 -3.890625 2.703125 -3.8125 2.640625 -3.765625 C 2.375 -3.96875 2.09375 -4.015625 1.78125 -4.015625 C 0.59375 -4.015625 0.3125 -3.359375 0.3125 -2.90625 C 0.3125 -2.625 0.4375 -2.390625 0.640625 -2.1875 C 0.9375 -1.90625 1.28125 -1.84375 1.734375 -1.765625 C 2.203125 -1.671875 2.34375 -1.65625 2.546875 -1.5 C 2.640625 -1.421875 2.859375 -1.25 2.859375 -0.921875 C 2.859375 -0.125 1.953125 -0.125 1.828125 -0.125 C 0.921875 -0.125 0.6875 -0.890625 0.578125 -1.375 C 0.546875 -1.46875 0.53125 -1.515625 0.4375 -1.515625 C 0.3125 -1.515625 0.3125 -1.4375 0.3125 -1.28125 L 0.3125 -0.140625 C 0.3125 0.015625 0.3125 0.09375 0.40625 0.09375 C 0.46875 0.09375 0.46875 0.09375 0.640625 -0.078125 C 0.671875 -0.140625 0.765625 -0.25 0.8125 -0.296875 C 1.1875 0.078125 1.609375 0.09375 1.828125 0.09375 C 2.9375 0.09375 3.3125 -0.546875 3.3125 -1.140625 Z M 3.3125 -1.140625 "/>
</g>
<g id="glyph-2-12">
<path d="M 4.453125 -0.796875 L 4.453125 -1.296875 L 4.203125 -1.296875 L 4.203125 -0.8125 C 4.203125 -0.703125 4.203125 -0.265625 3.890625 -0.265625 C 3.5625 -0.265625 3.5625 -0.6875 3.5625 -0.828125 L 3.5625 -2.40625 C 3.5625 -2.921875 3.5625 -3.21875 3.15625 -3.59375 C 2.828125 -3.890625 2.390625 -4.015625 1.953125 -4.015625 C 1.1875 -4.015625 0.5625 -3.640625 0.5625 -3.0625 C 0.5625 -2.796875 0.75 -2.640625 0.984375 -2.640625 C 1.234375 -2.640625 1.40625 -2.8125 1.40625 -3.046875 C 1.40625 -3.4375 1 -3.484375 1 -3.484375 C 1.234375 -3.71875 1.671875 -3.796875 1.921875 -3.796875 C 2.390625 -3.796875 2.890625 -3.453125 2.890625 -2.65625 L 2.890625 -2.375 C 2.40625 -2.34375 1.734375 -2.3125 1.140625 -2.015625 C 0.5 -1.703125 0.296875 -1.234375 0.296875 -0.875 C 0.296875 -0.140625 1.171875 0.09375 1.765625 0.09375 C 2.515625 0.09375 2.859375 -0.390625 2.984375 -0.640625 C 3.015625 -0.265625 3.28125 0.046875 3.671875 0.046875 C 3.890625 0.046875 4.453125 -0.078125 4.453125 -0.796875 Z M 2.890625 -1.265625 C 2.890625 -0.390625 2.21875 -0.125 1.828125 -0.125 C 1.40625 -0.125 1.015625 -0.4375 1.015625 -0.875 C 1.015625 -1.46875 1.53125 -2.09375 2.890625 -2.15625 Z M 2.890625 -1.265625 "/>
</g>
<g id="glyph-2-13">
<path d="M 8.046875 0 L 8.046875 -0.28125 L 7.84375 -0.28125 C 7.15625 -0.28125 7.140625 -0.375 7.140625 -0.703125 L 7.140625 -5.421875 C 7.140625 -5.75 7.15625 -5.84375 7.84375 -5.84375 L 8.046875 -5.84375 L 8.046875 -6.125 L 6.546875 -6.125 C 6.359375 -6.125 6.296875 -6.125 6.234375 -5.96875 L 4.21875 -0.875 L 2.21875 -5.921875 C 2.140625 -6.109375 2.140625 -6.125 1.890625 -6.125 L 0.390625 -6.125 L 0.390625 -5.84375 L 0.59375 -5.84375 C 1.28125 -5.84375 1.296875 -5.75 1.296875 -5.421875 L 1.296875 -0.953125 C 1.296875 -0.703125 1.296875 -0.28125 0.390625 -0.28125 L 0.390625 0 C 0.875 -0.015625 1 -0.03125 1.4375 -0.03125 C 1.875 -0.03125 2.015625 -0.015625 2.5 0 L 2.5 -0.28125 C 1.578125 -0.28125 1.578125 -0.703125 1.578125 -0.953125 L 1.578125 -5.75 L 1.59375 -5.765625 L 3.796875 -0.203125 C 3.84375 -0.078125 3.875 0 3.984375 0 C 4.078125 0 4.125 -0.078125 4.15625 -0.15625 L 6.40625 -5.828125 L 6.40625 -0.703125 C 6.40625 -0.375 6.390625 -0.28125 5.703125 -0.28125 L 5.5 -0.28125 L 5.5 0 C 6.03125 -0.03125 6.640625 -0.03125 6.765625 -0.03125 C 6.828125 -0.03125 7.484375 -0.03125 8.046875 0 Z M 8.046875 0 "/>
</g>
<g id="glyph-2-14">
<path d="M 3.0625 -1.109375 L 3.0625 -1.625 L 2.8125 -1.625 L 2.8125 -1.140625 C 2.8125 -0.46875 2.53125 -0.15625 2.21875 -0.15625 C 1.609375 -0.15625 1.609375 -0.9375 1.609375 -1.109375 L 1.609375 -3.59375 L 2.921875 -3.59375 L 2.921875 -3.859375 L 1.609375 -3.859375 L 1.609375 -5.515625 L 1.359375 -5.515625 C 1.359375 -4.765625 1.046875 -3.84375 0.171875 -3.8125 L 0.171875 -3.59375 L 0.953125 -3.59375 L 0.953125 -1.109375 C 0.953125 -0.109375 1.671875 0.09375 2.15625 0.09375 C 2.75 0.09375 3.0625 -0.46875 3.0625 -1.109375 Z M 3.0625 -1.109375 "/>
</g>
<g id="glyph-2-15">
<path d="M 4.8125 -1.9375 C 4.8125 -3.0625 3.921875 -3.96875 2.84375 -3.96875 C 2.234375 -3.96875 1.8125 -3.65625 1.59375 -3.40625 L 1.59375 -6.21875 L 0.265625 -6.125 L 0.265625 -5.84375 C 0.875 -5.84375 0.953125 -5.78125 0.953125 -5.34375 L 0.953125 0 L 1.203125 0 L 1.546875 -0.546875 C 1.828125 -0.15625 2.265625 0.09375 2.75 0.09375 C 3.828125 0.09375 4.8125 -0.765625 4.8125 -1.9375 Z M 4.03125 -1.953125 C 4.03125 -1.53125 3.984375 -1.046875 3.75 -0.6875 C 3.546875 -0.40625 3.1875 -0.125 2.703125 -0.125 C 2.3125 -0.125 1.96875 -0.34375 1.75 -0.671875 C 1.625 -0.859375 1.625 -0.875 1.625 -1.046875 L 1.625 -2.859375 C 1.625 -3.03125 1.625 -3.046875 1.71875 -3.1875 C 2.03125 -3.59375 2.46875 -3.734375 2.8125 -3.734375 C 3.1875 -3.734375 3.546875 -3.53125 3.78125 -3.140625 C 4.015625 -2.765625 4.03125 -2.234375 4.03125 -1.953125 Z M 4.03125 -1.953125 "/>
</g>
<g id="glyph-2-16">
<path d="M 2.34375 0 L 2.34375 -0.28125 C 1.75 -0.28125 1.65625 -0.28125 1.65625 -0.6875 L 1.65625 -6.21875 L 0.328125 -6.125 L 0.328125 -5.84375 C 0.9375 -5.84375 1.015625 -5.78125 1.015625 -5.34375 L 1.015625 -0.6875 C 1.015625 -0.28125 0.921875 -0.28125 0.328125 -0.28125 L 0.328125 0 C 0.75 -0.015625 0.921875 -0.03125 1.328125 -0.03125 C 1.75 -0.03125 1.90625 -0.015625 2.34375 0 Z M 2.34375 0 "/>
</g>
<g id="glyph-2-17">
<path d="M 4.59375 -1.65625 C 4.59375 -2.171875 4.40625 -2.5625 4.203125 -2.828125 C 3.8125 -3.328125 3.40625 -3.421875 2.828125 -3.5625 L 2.03125 -3.75 C 1.3125 -3.921875 1.078125 -4.5 1.078125 -4.890625 C 1.078125 -5.5 1.5625 -6.078125 2.328125 -6.078125 C 3.484375 -6.078125 3.953125 -5.203125 4.078125 -4.3125 C 4.09375 -4.140625 4.109375 -4.09375 4.21875 -4.09375 C 4.34375 -4.09375 4.34375 -4.15625 4.34375 -4.34375 L 4.34375 -6.078125 C 4.34375 -6.25 4.34375 -6.328125 4.234375 -6.328125 C 4.171875 -6.328125 4.15625 -6.3125 4.09375 -6.203125 C 3.984375 -6.046875 4.078125 -6.15625 3.78125 -5.6875 C 3.625 -5.875 3.15625 -6.328125 2.3125 -6.328125 C 1.265625 -6.328125 0.515625 -5.5 0.515625 -4.59375 C 0.515625 -3.890625 0.9375 -3.46875 0.984375 -3.421875 C 1.375 -3.015625 1.546875 -2.984375 2.609375 -2.71875 C 3.34375 -2.5625 3.421875 -2.53125 3.71875 -2.234375 C 3.71875 -2.234375 4.03125 -1.890625 4.03125 -1.359375 C 4.03125 -0.75 3.59375 -0.078125 2.765625 -0.078125 C 2.078125 -0.078125 0.828125 -0.375 0.765625 -1.84375 C 0.75 -1.984375 0.75 -2.03125 0.640625 -2.03125 C 0.515625 -2.03125 0.515625 -1.96875 0.515625 -1.78125 L 0.515625 -0.046875 C 0.515625 0.125 0.515625 0.203125 0.625 0.203125 C 0.6875 0.203125 0.6875 0.1875 0.75 0.078125 C 0.875 -0.078125 0.78125 0.03125 1.078125 -0.4375 C 1.625 0.109375 2.34375 0.203125 2.78125 0.203125 C 3.875 0.203125 4.59375 -0.703125 4.59375 -1.65625 Z M 4.59375 -1.65625 "/>
</g>
<g id="glyph-2-18">
<path d="M 3.28125 -5.6875 C 3.28125 -6.03125 2.9375 -6.328125 2.453125 -6.328125 C 1.75 -6.328125 1.015625 -5.796875 1.015625 -4.890625 L 1.015625 -3.859375 L 0.3125 -3.859375 L 0.3125 -3.59375 L 1.015625 -3.59375 L 1.015625 -0.6875 C 1.015625 -0.28125 0.921875 -0.28125 0.328125 -0.28125 L 0.328125 0 C 0.796875 -0.015625 0.921875 -0.03125 1.375 -0.03125 L 2.515625 0 L 2.515625 -0.28125 L 2.328125 -0.28125 C 1.671875 -0.28125 1.65625 -0.375 1.65625 -0.703125 L 1.65625 -3.59375 L 2.6875 -3.59375 L 2.6875 -3.859375 L 1.625 -3.859375 L 1.625 -4.875 C 1.625 -5.6875 2.0625 -6.09375 2.453125 -6.09375 C 2.53125 -6.09375 2.625 -6.078125 2.71875 -6.046875 C 2.625 -6.015625 2.484375 -5.90625 2.484375 -5.671875 C 2.484375 -5.4375 2.65625 -5.28125 2.875 -5.28125 C 3.125 -5.28125 3.28125 -5.453125 3.28125 -5.6875 Z M 3.28125 -5.6875 "/>
</g>
<g id="glyph-2-19">
<path d="M 6.5625 0 L 6.5625 -0.28125 L 6.359375 -0.28125 C 5.671875 -0.28125 5.65625 -0.375 5.65625 -0.703125 L 5.65625 -5.421875 C 5.65625 -5.75 5.671875 -5.84375 6.359375 -5.84375 L 6.5625 -5.84375 L 6.5625 -6.125 C 6.15625 -6.09375 5.65625 -6.09375 5.25 -6.09375 C 4.828125 -6.09375 4.328125 -6.09375 3.921875 -6.125 L 3.921875 -5.84375 L 4.140625 -5.84375 C 4.828125 -5.84375 4.84375 -5.75 4.84375 -5.421875 L 4.84375 -3.328125 L 2.0625 -3.328125 L 2.0625 -5.421875 C 2.0625 -5.75 2.078125 -5.84375 2.765625 -5.84375 L 2.984375 -5.84375 L 2.984375 -6.125 C 2.578125 -6.09375 2.078125 -6.09375 1.65625 -6.09375 C 1.25 -6.09375 0.75 -6.09375 0.34375 -6.125 L 0.34375 -5.84375 L 0.546875 -5.84375 C 1.234375 -5.84375 1.25 -5.75 1.25 -5.421875 L 1.25 -0.703125 C 1.25 -0.375 1.234375 -0.28125 0.546875 -0.28125 L 0.34375 -0.28125 L 0.34375 0 C 0.75 -0.03125 1.25 -0.03125 1.65625 -0.03125 C 2.078125 -0.03125 2.578125 -0.03125 2.984375 0 L 2.984375 -0.28125 L 2.765625 -0.28125 C 2.078125 -0.28125 2.0625 -0.375 2.0625 -0.703125 L 2.0625 -3.046875 L 4.84375 -3.046875 L 4.84375 -0.703125 C 4.84375 -0.375 4.828125 -0.28125 4.140625 -0.28125 L 3.921875 -0.28125 L 3.921875 0 C 4.328125 -0.03125 4.828125 -0.03125 5.25 -0.03125 C 5.65625 -0.03125 6.15625 -0.03125 6.5625 0 Z M 6.5625 0 "/>
</g>
<g id="glyph-2-20">
<path d="M 4.65625 -3.59375 L 4.65625 -3.859375 C 4.375 -3.84375 4.09375 -3.84375 3.984375 -3.84375 C 3.734375 -3.84375 3.453125 -3.84375 3.203125 -3.859375 L 3.203125 -3.59375 C 3.609375 -3.5625 3.609375 -3.25 3.609375 -3.203125 C 3.609375 -3.109375 3.578125 -3.015625 3.546875 -2.953125 L 2.640625 -0.8125 L 1.625 -3.171875 C 1.578125 -3.296875 1.578125 -3.359375 1.578125 -3.359375 C 1.578125 -3.59375 1.890625 -3.59375 2.078125 -3.59375 L 2.078125 -3.859375 L 1.078125 -3.84375 C 1.046875 -3.84375 0.53125 -3.84375 0.1875 -3.859375 L 0.1875 -3.59375 C 0.59375 -3.59375 0.765625 -3.5625 0.875 -3.328125 L 2.28125 0 L 2.0625 0.53125 C 1.859375 1 1.609375 1.609375 1.015625 1.609375 C 0.796875 1.609375 0.640625 1.5 0.625 1.484375 C 0.6875 1.46875 0.9375 1.40625 0.9375 1.09375 C 0.9375 0.859375 0.765625 0.71875 0.5625 0.71875 C 0.34375 0.71875 0.171875 0.859375 0.171875 1.109375 C 0.171875 1.5 0.5625 1.84375 1.015625 1.84375 C 1.609375 1.84375 1.984375 1.3125 2.203125 0.828125 L 3.828125 -2.96875 C 3.921875 -3.203125 4.09375 -3.5625 4.65625 -3.59375 Z M 4.65625 -3.59375 "/>
</g>
<g id="glyph-2-21">
<path d="M 6.59375 0 L 6.59375 -0.28125 L 6.453125 -0.28125 C 5.890625 -0.28125 5.796875 -0.359375 5.703125 -0.609375 L 3.671875 -6.234375 C 3.625 -6.34375 3.59375 -6.421875 3.453125 -6.421875 C 3.3125 -6.421875 3.296875 -6.375 3.234375 -6.21875 L 1.3125 -0.890625 C 1.203125 -0.59375 1 -0.28125 0.3125 -0.28125 L 0.3125 0 C 0.640625 -0.03125 0.890625 -0.03125 1.21875 -0.03125 L 2.234375 0 L 2.234375 -0.28125 C 1.71875 -0.28125 1.5625 -0.5625 1.5625 -0.734375 C 1.5625 -0.8125 1.59375 -0.859375 1.609375 -0.90625 L 2.03125 -2.0625 L 4.34375 -2.0625 L 4.828125 -0.703125 C 4.875 -0.625 4.875 -0.59375 4.875 -0.546875 C 4.875 -0.28125 4.375 -0.28125 4.140625 -0.28125 L 4.140625 0 C 4.546875 -0.03125 5.015625 -0.03125 5.421875 -0.03125 Z M 4.25 -2.34375 L 2.125 -2.34375 L 3.1875 -5.28125 Z M 4.25 -2.34375 "/>
</g>
<g id="glyph-2-22">
<path d="M 6.765625 -2.171875 L 6.765625 -2.453125 C 6.1875 -2.4375 6.09375 -2.4375 5.609375 -2.4375 C 5.265625 -2.4375 4.5 -2.4375 4.171875 -2.453125 L 4.171875 -2.171875 L 4.46875 -2.171875 C 5.296875 -2.171875 5.328125 -2.078125 5.328125 -1.734375 L 5.328125 -1.171875 C 5.328125 -0.078125 3.96875 -0.078125 3.84375 -0.078125 C 3.109375 -0.078125 1.421875 -0.515625 1.421875 -3.0625 C 1.421875 -5.5625 3.0625 -6.046875 3.796875 -6.046875 C 4.6875 -6.046875 5.625 -5.375 5.84375 -3.921875 C 5.859375 -3.796875 5.875 -3.765625 5.984375 -3.765625 C 6.140625 -3.765625 6.140625 -3.796875 6.140625 -3.984375 L 6.140625 -6.09375 C 6.140625 -6.25 6.140625 -6.328125 6.03125 -6.328125 C 5.96875 -6.328125 5.9375 -6.296875 5.890625 -6.21875 L 5.421875 -5.546875 C 5.140625 -5.828125 4.625 -6.328125 3.71875 -6.328125 C 1.984375 -6.328125 0.515625 -4.875 0.515625 -3.0625 C 0.515625 -1.234375 1.96875 0.203125 3.734375 0.203125 C 4.578125 0.203125 5.21875 -0.125 5.46875 -0.5625 C 5.625 -0.328125 5.953125 -0.015625 6.03125 -0.015625 C 6.140625 -0.015625 6.140625 -0.09375 6.140625 -0.234375 L 6.140625 -1.78125 C 6.140625 -2.140625 6.171875 -2.171875 6.765625 -2.171875 Z M 6.765625 -2.171875 "/>
</g>
<g id="glyph-2-23">
<path d="M 6.46875 -3.59375 L 6.46875 -3.859375 C 6.109375 -3.84375 6.09375 -3.84375 5.796875 -3.84375 C 5.453125 -3.84375 5.328125 -3.84375 4.96875 -3.859375 L 4.96875 -3.59375 C 5.359375 -3.578125 5.484375 -3.34375 5.484375 -3.15625 C 5.484375 -3.0625 5.46875 -3.015625 5.4375 -2.953125 L 4.609375 -0.703125 L 3.703125 -3.171875 C 3.65625 -3.28125 3.65625 -3.3125 3.65625 -3.34375 C 3.65625 -3.5625 3.9375 -3.59375 4.171875 -3.59375 L 4.171875 -3.859375 C 3.765625 -3.84375 3.390625 -3.84375 3.25 -3.84375 C 2.96875 -3.84375 2.703125 -3.84375 2.421875 -3.859375 L 2.421875 -3.59375 C 2.703125 -3.59375 2.890625 -3.578125 2.984375 -3.453125 C 3.0625 -3.359375 3.1875 -3 3.1875 -2.96875 L 3.140625 -2.84375 L 2.40625 -0.828125 L 1.546875 -3.15625 C 1.5 -3.296875 1.5 -3.3125 1.5 -3.34375 C 1.5 -3.59375 1.84375 -3.59375 2.015625 -3.59375 L 2.015625 -3.859375 L 1.046875 -3.84375 C 0.75 -3.84375 0.484375 -3.84375 0.171875 -3.859375 L 0.171875 -3.59375 C 0.609375 -3.59375 0.71875 -3.5625 0.828125 -3.265625 L 1.984375 -0.09375 C 2.03125 0.015625 2.0625 0.09375 2.203125 0.09375 C 2.328125 0.09375 2.375 0 2.40625 -0.09375 L 3.3125 -2.59375 L 4.25 -0.09375 C 4.28125 0 4.3125 0.09375 4.453125 0.09375 C 4.578125 0.09375 4.609375 0.015625 4.640625 -0.078125 L 5.71875 -3 C 5.90625 -3.546875 6.28125 -3.578125 6.46875 -3.59375 Z M 6.46875 -3.59375 "/>
</g>
<g id="glyph-2-24">
<path d="M 6.75 -0.796875 C 6.75 -0.859375 6.75 -0.953125 6.625 -0.953125 C 6.5 -0.953125 6.5 -0.875 6.5 -0.8125 C 6.453125 -0.234375 6.171875 -0.03125 5.890625 -0.03125 C 5.609375 -0.03125 5.5 -0.203125 5.4375 -0.359375 C 5.359375 -0.5625 5.28125 -1.171875 5.21875 -1.5625 C 5.140625 -2.125 5.0625 -2.71875 4.078125 -3.046875 C 4.921875 -3.28125 5.625 -3.8125 5.625 -4.515625 C 5.625 -5.40625 4.53125 -6.125 3.21875 -6.125 L 0.359375 -6.125 L 0.359375 -5.84375 L 0.5625 -5.84375 C 1.25 -5.84375 1.28125 -5.75 1.28125 -5.421875 L 1.28125 -0.703125 C 1.28125 -0.375 1.25 -0.28125 0.5625 -0.28125 L 0.359375 -0.28125 L 0.359375 0 C 0.78125 -0.03125 1.234375 -0.03125 1.65625 -0.03125 C 2.09375 -0.03125 2.53125 -0.03125 2.96875 0 L 2.96875 -0.28125 L 2.765625 -0.28125 C 2.078125 -0.28125 2.046875 -0.375 2.046875 -0.703125 L 2.046875 -2.953125 L 3.125 -2.953125 C 3.78125 -2.953125 4.0625 -2.609375 4.09375 -2.578125 C 4.375 -2.25 4.375 -2.109375 4.375 -1.46875 C 4.375 -0.875 4.375 -0.46875 4.796875 -0.140625 C 5.21875 0.203125 5.765625 0.203125 5.859375 0.203125 C 6.609375 0.203125 6.75 -0.578125 6.75 -0.796875 Z M 4.703125 -4.515625 C 4.703125 -3.734375 4.3125 -3.171875 3.09375 -3.171875 L 2.046875 -3.171875 L 2.046875 -5.484375 C 2.046875 -5.71875 2.078125 -5.796875 2.25 -5.828125 C 2.328125 -5.84375 2.609375 -5.84375 2.796875 -5.84375 C 3.5625 -5.84375 4.703125 -5.84375 4.703125 -4.515625 Z M 4.703125 -4.515625 "/>
</g>
<g id="glyph-2-25">
<path d="M 6 -2.3125 L 5.75 -2.3125 C 5.53125 -0.921875 5.296875 -0.28125 3.765625 -0.28125 L 2.5 -0.28125 C 2.078125 -0.28125 2.0625 -0.34375 2.0625 -0.640625 L 2.0625 -3.03125 L 2.890625 -3.03125 C 3.78125 -3.03125 3.890625 -2.75 3.890625 -1.984375 L 4.140625 -1.984375 L 4.140625 -4.359375 L 3.890625 -4.359375 C 3.890625 -3.59375 3.78125 -3.3125 2.890625 -3.3125 L 2.0625 -3.3125 L 2.0625 -5.453125 C 2.0625 -5.765625 2.078125 -5.828125 2.5 -5.828125 L 3.703125 -5.828125 C 5.109375 -5.828125 5.359375 -5.34375 5.5 -4.078125 L 5.75 -4.078125 L 5.5 -6.09375 L 0.34375 -6.09375 L 0.34375 -5.828125 L 0.546875 -5.828125 C 1.234375 -5.828125 1.25 -5.71875 1.25 -5.390625 L 1.25 -0.703125 C 1.25 -0.375 1.234375 -0.28125 0.546875 -0.28125 L 0.34375 -0.28125 L 0.34375 0 L 5.609375 0 Z M 6 -2.3125 "/>
</g>
<g id="glyph-2-26">
<path d="M 4.46875 -3.609375 C 4.46875 -3.78125 4.34375 -4.0625 3.984375 -4.0625 C 3.734375 -4.0625 3.328125 -3.96875 3.015625 -3.640625 C 2.765625 -3.84375 2.421875 -3.96875 2.046875 -3.96875 C 1.1875 -3.96875 0.546875 -3.359375 0.546875 -2.640625 C 0.546875 -2.1875 0.8125 -1.859375 0.953125 -1.734375 C 0.9375 -1.71875 0.6875 -1.40625 0.6875 -0.984375 C 0.6875 -0.6875 0.828125 -0.359375 1.078125 -0.203125 C 0.625 -0.046875 0.265625 0.28125 0.265625 0.703125 C 0.265625 1.34375 1.140625 1.84375 2.296875 1.84375 C 3.40625 1.84375 4.34375 1.375 4.34375 0.6875 C 4.34375 0.3125 4.171875 -0.078125 3.84375 -0.296875 C 3.34375 -0.609375 2.8125 -0.609375 1.96875 -0.609375 C 1.78125 -0.609375 1.5 -0.609375 1.421875 -0.625 C 1.171875 -0.6875 1 -0.921875 1 -1.203125 C 1 -1.359375 1.046875 -1.484375 1.125 -1.609375 C 1.34375 -1.46875 1.625 -1.328125 2.03125 -1.328125 C 2.890625 -1.328125 3.53125 -1.9375 3.53125 -2.640625 C 3.53125 -3.078125 3.28125 -3.390625 3.171875 -3.515625 C 3.53125 -3.84375 3.953125 -3.84375 4.046875 -3.84375 C 4.015625 -3.8125 3.9375 -3.765625 3.9375 -3.609375 C 3.9375 -3.5 4 -3.34375 4.203125 -3.34375 C 4.328125 -3.34375 4.46875 -3.421875 4.46875 -3.609375 Z M 2.84375 -2.640625 C 2.84375 -2.4375 2.84375 -1.5625 2.03125 -1.5625 C 1.234375 -1.5625 1.234375 -2.453125 1.234375 -2.640625 C 1.234375 -2.890625 1.25 -3.1875 1.40625 -3.40625 C 1.546875 -3.59375 1.78125 -3.71875 2.03125 -3.71875 C 2.84375 -3.71875 2.84375 -2.859375 2.84375 -2.640625 Z M 3.84375 0.6875 C 3.84375 1.203125 3.140625 1.609375 2.3125 1.609375 C 1.421875 1.609375 0.765625 1.1875 0.765625 0.6875 C 0.765625 0.546875 0.859375 -0.046875 1.625 -0.046875 L 2.453125 -0.046875 C 2.734375 -0.046875 3.84375 -0.03125 3.84375 0.6875 Z M 3.84375 0.6875 "/>
</g>
<g id="glyph-2-27">
<path d="M 4.90625 0 L 4.90625 -0.28125 C 4.296875 -0.28125 4.21875 -0.34375 4.21875 -0.78125 L 4.21875 -3.96875 L 2.859375 -3.859375 L 2.859375 -3.59375 C 3.46875 -3.59375 3.546875 -3.53125 3.546875 -3.078125 L 3.546875 -1.5 C 3.546875 -0.703125 3.109375 -0.125 2.453125 -0.125 C 1.71875 -0.125 1.671875 -0.515625 1.671875 -1 L 1.671875 -3.96875 L 0.3125 -3.859375 L 0.3125 -3.59375 C 1 -3.59375 1 -3.5625 1 -2.765625 L 1 -1.421875 C 1 -0.828125 1 -0.453125 1.421875 -0.140625 C 1.671875 0.03125 2.046875 0.09375 2.40625 0.09375 C 2.875 0.09375 3.3125 -0.109375 3.5625 -0.640625 L 3.578125 -0.640625 L 3.578125 0.09375 Z M 4.90625 0 "/>
</g>
<g id="glyph-2-28">
<path d="M 4.671875 -3.59375 L 4.671875 -3.859375 C 4.40625 -3.84375 3.984375 -3.84375 3.984375 -3.84375 C 3.734375 -3.84375 3.453125 -3.84375 3.203125 -3.859375 L 3.203125 -3.59375 C 3.46875 -3.5625 3.609375 -3.4375 3.609375 -3.203125 C 3.609375 -3.109375 3.609375 -3.09375 3.5625 -3 L 2.640625 -0.734375 L 1.609375 -3.1875 C 1.59375 -3.234375 1.5625 -3.296875 1.5625 -3.359375 C 1.5625 -3.59375 1.890625 -3.59375 2.0625 -3.59375 L 2.0625 -3.859375 C 1.671875 -3.84375 1.46875 -3.84375 1.078125 -3.84375 C 0.765625 -3.84375 0.5 -3.84375 0.171875 -3.859375 L 0.171875 -3.59375 C 0.59375 -3.59375 0.765625 -3.59375 0.90625 -3.25 L 2.21875 -0.078125 C 2.265625 0.078125 2.34375 0.09375 2.421875 0.09375 C 2.5 0.09375 2.578125 0.078125 2.640625 -0.078125 L 3.859375 -3.015625 C 4.046875 -3.46875 4.359375 -3.578125 4.671875 -3.59375 Z M 4.671875 -3.59375 "/>
</g>
<g id="glyph-2-29">
<path d="M 1.765625 -0.484375 C 1.765625 -0.75 1.546875 -0.96875 1.28125 -0.96875 C 1 -0.96875 0.796875 -0.75 0.796875 -0.484375 C 0.796875 -0.21875 1 0 1.28125 0 C 1.546875 0 1.765625 -0.21875 1.765625 -0.484375 Z M 1.765625 -0.484375 "/>
</g>
</g>
</defs>
<path fill-rule="nonzero" fill="rgb(97.499084%, 97.499084%, 97.499084%)" fill-opacity="1" stroke-width="0.3985" stroke-linecap="butt" stroke-linejoin="miter" stroke="rgb(0%, 0%, 0%)" stroke-opacity="1" stroke-miterlimit="10" d="M 116.694531 263.895312 L 25.038281 263.895312 C 22.839062 263.895312 21.053906 262.110156 21.053906 259.907031 L 21.053906 238.996875 C 21.053906 236.79375 22.839062 235.008594 25.038281 235.008594 L 116.694531 235.008594 C 118.897656 235.008594 120.678906 236.79375 120.678906 238.996875 L 120.678906 259.907031 C 120.678906 262.110156 118.897656 263.895312 116.694531 263.895312 Z M 116.694531 263.895312 " transform="matrix(1, 0, 0, -1, 122.45, 268.075)"/>
<g fill="rgb(0%, 0%, 0%)" fill-opacity="1">
<use xlink:href="#glyph-0-0" x="169.531" y="15.388"/>
</g>
<g fill="rgb(0%, 0%, 0%)" fill-opacity="1">
<use xlink:href="#glyph-1-0" x="176.313" y="16.385"/>
</g>
<g fill="rgb(0%, 0%, 0%)" fill-opacity="1">
<use xlink:href="#glyph-2-0" x="180.464" y="15.388"/>
<use xlink:href="#glyph-2-1" x="183.539468" y="15.388"/>
<use xlink:href="#glyph-2-2" x="187.637104" y="15.388"/>
<use xlink:href="#glyph-2-3" x="192.756907" y="15.388"/>
<use xlink:href="#glyph-2-4" x="196.361392" y="15.388"/>
<use xlink:href="#glyph-2-5" x="198.925776" y="15.388"/>
</g>
<g fill="rgb(0%, 0%, 0%)" fill-opacity="1">
<use xlink:href="#glyph-2-6" x="202.763387" y="15.388"/>
<use xlink:href="#glyph-2-1" x="207.88319" y="15.388"/>
<use xlink:href="#glyph-2-7" x="211.980826" y="15.388"/>
</g>
<g fill="rgb(0%, 0%, 0%)" fill-opacity="1">
<use xlink:href="#glyph-2-8" x="161.197" y="26.347"/>
<use xlink:href="#glyph-2-9" x="168.872221" y="26.347"/>
<use xlink:href="#glyph-2-3" x="173.480941" y="26.347"/>
<use xlink:href="#glyph-2-10" x="177.085425" y="26.347"/>
<use xlink:href="#glyph-2-6" x="182.205228" y="26.347"/>
<use xlink:href="#glyph-2-4" x="187.325031" y="26.347"/>
<use xlink:href="#glyph-2-11" x="189.889416" y="26.347"/>
<use xlink:href="#glyph-2-8" x="193.5208" y="26.347"/>
</g>
<g fill="rgb(0%, 0%, 0%)" fill-opacity="1">
<use xlink:href="#glyph-2-5" x="204.181826" y="26.347"/>
</g>
<g fill="rgb(0%, 0%, 0%)" fill-opacity="1">
<use xlink:href="#glyph-2-6" x="208.028403" y="26.347"/>
<use xlink:href="#glyph-2-12" x="213.148206" y="26.347"/>
<use xlink:href="#glyph-2-4" x="217.756925" y="26.347"/>
<use xlink:href="#glyph-2-2" x="220.32131" y="26.347"/>
</g>
<g fill="rgb(0%, 0%, 0%)" fill-opacity="1">
<use xlink:href="#glyph-2-13" x="13.829" y="44.366"/>
<use xlink:href="#glyph-2-1" x="22.27533" y="44.366"/>
<use xlink:href="#glyph-2-14" x="26.372966" y="44.366"/>
<use xlink:href="#glyph-2-12" x="29.959518" y="44.366"/>
<use xlink:href="#glyph-2-15" x="34.568237" y="44.366"/>
</g>
<g fill="rgb(0%, 0%, 0%)" fill-opacity="1">
<use xlink:href="#glyph-2-9" x="39.948065" y="44.366"/>
<use xlink:href="#glyph-2-16" x="44.556784" y="44.366"/>
<use xlink:href="#glyph-2-4" x="47.121169" y="44.366"/>
<use xlink:href="#glyph-2-11" x="49.685554" y="44.366"/>
<use xlink:href="#glyph-2-8" x="53.316938" y="44.366"/>
</g>
<g fill="rgb(0%, 0%, 0%)" fill-opacity="1">
<use xlink:href="#glyph-2-17" x="7.306" y="77.61"/>
<use xlink:href="#glyph-2-1" x="12.425803" y="77.61"/>
<use xlink:href="#glyph-2-16" x="16.523439" y="77.61"/>
<use xlink:href="#glyph-2-18" x="19.087823" y="77.61"/>
<use xlink:href="#glyph-2-0" x="21.903267" y="77.61"/>
<use xlink:href="#glyph-2-3" x="24.978735" y="77.61"/>
<use xlink:href="#glyph-2-1" x="28.58322" y="77.61"/>
<use xlink:href="#glyph-2-10" x="32.680855" y="77.61"/>
<use xlink:href="#glyph-2-16" x="37.800658" y="77.61"/>
<use xlink:href="#glyph-2-4" x="40.365043" y="77.61"/>
<use xlink:href="#glyph-2-5" x="42.929428" y="77.61"/>
<use xlink:href="#glyph-2-12" x="47.027063" y="77.61"/>
<use xlink:href="#glyph-2-14" x="51.635783" y="77.61"/>
<use xlink:href="#glyph-2-4" x="55.222335" y="77.61"/>
<use xlink:href="#glyph-2-9" x="57.786719" y="77.61"/>
<use xlink:href="#glyph-2-2" x="62.395439" y="77.61"/>
</g>
<g fill="rgb(0%, 0%, 0%)" fill-opacity="1">
<use xlink:href="#glyph-2-19" x="20.119" y="111.527"/>
<use xlink:href="#glyph-2-1" x="27.032079" y="111.527"/>
<use xlink:href="#glyph-2-3" x="31.129715" y="111.527"/>
<use xlink:href="#glyph-2-1" x="34.734199" y="111.527"/>
<use xlink:href="#glyph-2-7" x="38.831835" y="111.527"/>
<use xlink:href="#glyph-2-4" x="43.951638" y="111.527"/>
<use xlink:href="#glyph-2-14" x="46.516023" y="111.527"/>
</g>
<g fill="rgb(0%, 0%, 0%)" fill-opacity="1">
<use xlink:href="#glyph-2-20" x="49.84255" y="111.527"/>
</g>
<g fill="rgb(0%, 0%, 0%)" fill-opacity="1">
<use xlink:href="#glyph-2-21" x="14.622" y="145.691"/>
</g>
<g fill="rgb(0%, 0%, 0%)" fill-opacity="1">
<use xlink:href="#glyph-2-7" x="21.275054" y="145.691"/>
<use xlink:href="#glyph-2-12" x="26.394857" y="145.691"/>
<use xlink:href="#glyph-2-10" x="31.003576" y="145.691"/>
<use xlink:href="#glyph-2-14" x="36.123379" y="145.691"/>
<use xlink:href="#glyph-2-12" x="39.709931" y="145.691"/>
<use xlink:href="#glyph-2-14" x="44.318651" y="145.691"/>
<use xlink:href="#glyph-2-4" x="47.905203" y="145.691"/>
<use xlink:href="#glyph-2-9" x="50.469587" y="145.691"/>
<use xlink:href="#glyph-2-2" x="55.078307" y="145.691"/>
</g>
<g fill="rgb(0%, 0%, 0%)" fill-opacity="1">
<use xlink:href="#glyph-2-19" x="12.632" y="180.379"/>
<use xlink:href="#glyph-2-9" x="19.545079" y="180.379"/>
<use xlink:href="#glyph-2-8" x="24.153798" y="180.379"/>
<use xlink:href="#glyph-2-1" x="31.82902" y="180.379"/>
<use xlink:href="#glyph-2-9" x="35.926655" y="180.379"/>
<use xlink:href="#glyph-2-11" x="40.535375" y="180.379"/>
<use xlink:href="#glyph-2-14" x="44.166758" y="180.379"/>
<use xlink:href="#glyph-2-12" x="47.75331" y="180.379"/>
<use xlink:href="#glyph-2-11" x="52.36203" y="180.379"/>
<use xlink:href="#glyph-2-4" x="55.993414" y="180.379"/>
<use xlink:href="#glyph-2-11" x="58.557798" y="180.379"/>
</g>
<g fill="rgb(0%, 0%, 0%)" fill-opacity="1">
<use xlink:href="#glyph-2-22" x="22.136" y="214.444"/>
<use xlink:href="#glyph-2-3" x="29.371869" y="214.444"/>
<use xlink:href="#glyph-2-9" x="32.976353" y="214.444"/>
</g>
<g fill="rgb(0%, 0%, 0%)" fill-opacity="1">
<use xlink:href="#glyph-2-23" x="37.325048" y="214.444"/>
<use xlink:href="#glyph-2-14" x="43.978102" y="214.444"/>
<use xlink:href="#glyph-2-6" x="47.564654" y="214.444"/>
</g>
<g fill="rgb(0%, 0%, 0%)" fill-opacity="1">
<use xlink:href="#glyph-2-24" x="18.738" y="247.59"/>
<use xlink:href="#glyph-2-1" x="25.516583" y="247.59"/>
<use xlink:href="#glyph-2-11" x="29.614219" y="247.59"/>
<use xlink:href="#glyph-2-10" x="33.245603" y="247.59"/>
</g>
<g fill="rgb(0%, 0%, 0%)" fill-opacity="1">
<use xlink:href="#glyph-2-9" x="38.625431" y="247.59"/>
<use xlink:href="#glyph-2-2" x="43.23415" y="247.59"/>
<use xlink:href="#glyph-2-11" x="48.353953" y="247.59"/>
<use xlink:href="#glyph-2-1" x="51.985337" y="247.59"/>
</g>
<path fill-rule="nonzero" fill="rgb(97.499084%, 97.499084%, 97.499084%)" fill-opacity="1" stroke-width="0.3985" stroke-linecap="butt" stroke-linejoin="miter" stroke="rgb(0%, 0%, 0%)" stroke-opacity="1" stroke-miterlimit="10" d="M 47.905469 213.391406 L 150.522656 213.391406 L 150.522656 240.157031 L 47.905469 240.157031 Z M 47.905469 213.391406 " transform="matrix(1, 0, 0, -1, 122.45, 268.075)"/>
<g fill="rgb(0%, 0%, 0%)" fill-opacity="1">
<use xlink:href="#glyph-2-25" x="198.438" y="38.003"/>
<use xlink:href="#glyph-2-2" x="204.7055" y="38.003"/>
<use xlink:href="#glyph-2-1" x="209.825303" y="38.003"/>
<use xlink:href="#glyph-2-3" x="213.922938" y="38.003"/>
<use xlink:href="#glyph-2-26" x="217.527423" y="38.003"/>
<use xlink:href="#glyph-2-20" x="222.136142" y="38.003"/>
</g>
<g fill="rgb(0%, 0%, 0%)" fill-opacity="1">
<use xlink:href="#glyph-2-11" x="229.981725" y="38.003"/>
<use xlink:href="#glyph-2-1" x="233.613109" y="38.003"/>
<use xlink:href="#glyph-2-5" x="237.710744" y="38.003"/>
<use xlink:href="#glyph-2-0" x="241.80838" y="38.003"/>
</g>
<g fill="rgb(0%, 0%, 0%)" fill-opacity="1">
<use xlink:href="#glyph-2-14" x="194.268" y="48.962"/>
<use xlink:href="#glyph-2-9" x="197.854552" y="48.962"/>
<use xlink:href="#glyph-2-3" x="202.463271" y="48.962"/>
</g>
<g fill="rgb(0%, 0%, 0%)" fill-opacity="1">
<use xlink:href="#glyph-2-8" x="209.053561" y="48.962"/>
<use xlink:href="#glyph-2-9" x="216.728782" y="48.962"/>
<use xlink:href="#glyph-2-3" x="221.337501" y="48.962"/>
<use xlink:href="#glyph-2-10" x="224.941986" y="48.962"/>
<use xlink:href="#glyph-2-6" x="230.061789" y="48.962"/>
<use xlink:href="#glyph-2-4" x="235.181592" y="48.962"/>
<use xlink:href="#glyph-2-11" x="237.745977" y="48.962"/>
<use xlink:href="#glyph-2-8" x="241.377361" y="48.962"/>
</g>
<path fill-rule="nonzero" fill="rgb(97.499084%, 97.499084%, 97.499084%)" fill-opacity="1" stroke-width="0.3985" stroke-linecap="butt" stroke-linejoin="miter" stroke="rgb(0%, 0%, 0%)" stroke-opacity="1" stroke-miterlimit="10" d="M 47.905469 179.2625 L 150.522656 179.2625 L 150.522656 206.254687 L 47.905469 206.254687 Z M 47.905469 179.2625 " transform="matrix(1, 0, 0, -1, 122.45, 268.075)"/>
<g fill="rgb(0%, 0%, 0%)" fill-opacity="1">
<use xlink:href="#glyph-2-17" x="192.575" y="72.131"/>
<use xlink:href="#glyph-2-1" x="197.694803" y="72.131"/>
<use xlink:href="#glyph-2-16" x="201.792439" y="72.131"/>
<use xlink:href="#glyph-2-18" x="204.356823" y="72.131"/>
<use xlink:href="#glyph-2-0" x="207.172267" y="72.131"/>
<use xlink:href="#glyph-2-3" x="210.247735" y="72.131"/>
<use xlink:href="#glyph-2-1" x="213.85222" y="72.131"/>
<use xlink:href="#glyph-2-18" x="217.949855" y="72.131"/>
<use xlink:href="#glyph-2-1" x="220.765299" y="72.131"/>
<use xlink:href="#glyph-2-3" x="224.862934" y="72.131"/>
<use xlink:href="#glyph-2-1" x="228.467419" y="72.131"/>
<use xlink:href="#glyph-2-2" x="232.565055" y="72.131"/>
</g>
<g fill="rgb(0%, 0%, 0%)" fill-opacity="1">
<use xlink:href="#glyph-2-14" x="237.424833" y="72.131"/>
<use xlink:href="#glyph-2-4" x="241.011385" y="72.131"/>
<use xlink:href="#glyph-2-12" x="243.575769" y="72.131"/>
<use xlink:href="#glyph-2-16" x="248.184489" y="72.131"/>
</g>
<g fill="rgb(0%, 0%, 0%)" fill-opacity="1">
<use xlink:href="#glyph-2-1" x="192.19" y="83.09"/>
<use xlink:href="#glyph-2-2" x="196.287636" y="83.09"/>
<use xlink:href="#glyph-2-7" x="201.407439" y="83.09"/>
<use xlink:href="#glyph-2-9" x="206.527242" y="83.09"/>
<use xlink:href="#glyph-2-8" x="211.135961" y="83.09"/>
<use xlink:href="#glyph-2-9" x="218.811182" y="83.09"/>
<use xlink:href="#glyph-2-3" x="223.419902" y="83.09"/>
<use xlink:href="#glyph-2-10" x="227.024386" y="83.09"/>
<use xlink:href="#glyph-2-6" x="232.144189" y="83.09"/>
<use xlink:href="#glyph-2-4" x="237.263992" y="83.09"/>
<use xlink:href="#glyph-2-11" x="239.828377" y="83.09"/>
<use xlink:href="#glyph-2-8" x="243.459761" y="83.09"/>
</g>
<path fill-rule="nonzero" fill="rgb(97.499084%, 97.499084%, 97.499084%)" fill-opacity="1" stroke-width="0.3985" stroke-linecap="butt" stroke-linejoin="miter" stroke="rgb(0%, 0%, 0%)" stroke-opacity="1" stroke-miterlimit="10" d="M 47.905469 150.676562 L 150.522656 150.676562 L 150.522656 166.805469 L 47.905469 166.805469 Z M 47.905469 150.676562 " transform="matrix(1, 0, 0, -1, 122.45, 268.075)"/>
<g fill="rgb(0%, 0%, 0%)" fill-opacity="1">
<use xlink:href="#glyph-2-19" x="184.163" y="111.576"/>
<use xlink:href="#glyph-2-1" x="191.076079" y="111.576"/>
<use xlink:href="#glyph-2-3" x="195.173715" y="111.576"/>
<use xlink:href="#glyph-2-1" x="198.778199" y="111.576"/>
<use xlink:href="#glyph-2-7" x="202.875835" y="111.576"/>
<use xlink:href="#glyph-2-4" x="207.995638" y="111.576"/>
<use xlink:href="#glyph-2-14" x="210.560023" y="111.576"/>
<use xlink:href="#glyph-2-12" x="214.146575" y="111.576"/>
<use xlink:href="#glyph-2-3" x="218.755294" y="111.576"/>
<use xlink:href="#glyph-2-20" x="222.359779" y="111.576"/>
</g>
<g fill="rgb(0%, 0%, 0%)" fill-opacity="1">
<use xlink:href="#glyph-2-18" x="230.205361" y="111.576"/>
<use xlink:href="#glyph-2-27" x="233.020805" y="111.576"/>
<use xlink:href="#glyph-2-2" x="238.140608" y="111.576"/>
<use xlink:href="#glyph-2-5" x="243.260411" y="111.576"/>
<use xlink:href="#glyph-2-14" x="247.358046" y="111.576"/>
<use xlink:href="#glyph-2-9" x="250.944598" y="111.576"/>
<use xlink:href="#glyph-2-3" x="255.553318" y="111.576"/>
</g>
<path fill-rule="nonzero" fill="rgb(97.499084%, 97.499084%, 97.499084%)" fill-opacity="1" stroke-width="0.3985" stroke-linecap="butt" stroke-linejoin="miter" stroke="rgb(0%, 0%, 0%)" stroke-opacity="1" stroke-miterlimit="10" d="M 47.905469 112.000781 L 150.522656 112.000781 L 150.522656 137.45 L 47.905469 137.45 Z M 47.905469 112.000781 " transform="matrix(1, 0, 0, -1, 122.45, 268.075)"/>
<g fill="rgb(0%, 0%, 0%)" fill-opacity="1">
<use xlink:href="#glyph-2-21" x="194.053" y="141.032"/>
</g>
<g fill="rgb(0%, 0%, 0%)" fill-opacity="1">
<use xlink:href="#glyph-2-7" x="200.706054" y="141.032"/>
<use xlink:href="#glyph-2-12" x="205.825857" y="141.032"/>
<use xlink:href="#glyph-2-10" x="210.434576" y="141.032"/>
<use xlink:href="#glyph-2-14" x="215.554379" y="141.032"/>
<use xlink:href="#glyph-2-4" x="219.140931" y="141.032"/>
<use xlink:href="#glyph-2-28" x="221.705316" y="141.032"/>
</g>
<g fill="rgb(0%, 0%, 0%)" fill-opacity="1">
<use xlink:href="#glyph-2-1" x="226.305069" y="141.032"/>
</g>
<g fill="rgb(0%, 0%, 0%)" fill-opacity="1">
<use xlink:href="#glyph-2-2" x="233.388509" y="141.032"/>
<use xlink:href="#glyph-2-12" x="238.508312" y="141.032"/>
<use xlink:href="#glyph-2-14" x="243.117031" y="141.032"/>
<use xlink:href="#glyph-2-29" x="246.703583" y="141.032"/>
</g>
<g fill="rgb(0%, 0%, 0%)" fill-opacity="1">
<use xlink:href="#glyph-2-14" x="191.791" y="151.991"/>
<use xlink:href="#glyph-2-3" x="195.377552" y="151.991"/>
<use xlink:href="#glyph-2-12" x="198.982037" y="151.991"/>
<use xlink:href="#glyph-2-2" x="203.590756" y="151.991"/>
<use xlink:href="#glyph-2-11" x="208.710559" y="151.991"/>
<use xlink:href="#glyph-2-18" x="212.341943" y="151.991"/>
<use xlink:href="#glyph-2-9" x="215.157386" y="151.991"/>
<use xlink:href="#glyph-2-3" x="219.766106" y="151.991"/>
<use xlink:href="#glyph-2-8" x="223.37059" y="151.991"/>
<use xlink:href="#glyph-2-12" x="231.045812" y="151.991"/>
<use xlink:href="#glyph-2-14" x="235.654531" y="151.991"/>
<use xlink:href="#glyph-2-4" x="239.241083" y="151.991"/>
<use xlink:href="#glyph-2-9" x="241.805468" y="151.991"/>
<use xlink:href="#glyph-2-2" x="246.414187" y="151.991"/>
</g>
<path fill-rule="nonzero" fill="rgb(97.499084%, 97.499084%, 97.499084%)" fill-opacity="1" stroke-width="0.3985" stroke-linecap="butt" stroke-linejoin="miter" stroke="rgb(0%, 0%, 0%)" stroke-opacity="1" stroke-miterlimit="10" d="M 47.905469 77.313281 L 150.522656 77.313281 L 150.522656 104.10625 L 47.905469 104.10625 Z M 47.905469 77.313281 " transform="matrix(1, 0, 0, -1, 122.45, 268.075)"/>
<g fill="rgb(0%, 0%, 0%)" fill-opacity="1">
<use xlink:href="#glyph-2-19" x="196.673" y="174.079"/>
<use xlink:href="#glyph-2-9" x="203.586079" y="174.079"/>
<use xlink:href="#glyph-2-8" x="208.194798" y="174.079"/>
<use xlink:href="#glyph-2-1" x="215.87002" y="174.079"/>
<use xlink:href="#glyph-2-9" x="219.967655" y="174.079"/>
<use xlink:href="#glyph-2-11" x="224.576375" y="174.079"/>
<use xlink:href="#glyph-2-14" x="228.207758" y="174.079"/>
<use xlink:href="#glyph-2-12" x="231.79431" y="174.079"/>
<use xlink:href="#glyph-2-14" x="236.40303" y="174.079"/>
<use xlink:href="#glyph-2-4" x="239.989582" y="174.079"/>
<use xlink:href="#glyph-2-5" x="242.553966" y="174.079"/>
</g>
<g fill="rgb(0%, 0%, 0%)" fill-opacity="1">
<use xlink:href="#glyph-2-4" x="198.874" y="185.038"/>
<use xlink:href="#glyph-2-7" x="201.438385" y="185.038"/>
<use xlink:href="#glyph-2-1" x="206.558188" y="185.038"/>
<use xlink:href="#glyph-2-8" x="210.655823" y="185.038"/>
<use xlink:href="#glyph-2-10" x="218.331045" y="185.038"/>
</g>
<g fill="rgb(0%, 0%, 0%)" fill-opacity="1">
<use xlink:href="#glyph-2-9" x="223.710873" y="185.038"/>
<use xlink:href="#glyph-2-14" x="228.319592" y="185.038"/>
<use xlink:href="#glyph-2-1" x="231.906144" y="185.038"/>
<use xlink:href="#glyph-2-2" x="236.00378" y="185.038"/>
</g>
<g fill="rgb(0%, 0%, 0%)" fill-opacity="1">
<use xlink:href="#glyph-2-14" x="240.863558" y="185.038"/>
</g>
<path fill-rule="nonzero" fill="rgb(97.499084%, 97.499084%, 97.499084%)" fill-opacity="1" stroke-width="0.3985" stroke-linecap="butt" stroke-linejoin="miter" stroke="rgb(0%, 0%, 0%)" stroke-opacity="1" stroke-miterlimit="10" d="M 47.905469 49.45 L 150.522656 49.45 L 150.522656 63.938281 L 47.905469 63.938281 Z M 47.905469 49.45 " transform="matrix(1, 0, 0, -1, 122.45, 268.075)"/>
<g fill="rgb(0%, 0%, 0%)" fill-opacity="1">
<use xlink:href="#glyph-2-22" x="191.041" y="214.444"/>
<use xlink:href="#glyph-2-3" x="198.276869" y="214.444"/>
<use xlink:href="#glyph-2-9" x="201.881353" y="214.444"/>
</g>
<g fill="rgb(0%, 0%, 0%)" fill-opacity="1">
<use xlink:href="#glyph-2-23" x="206.230048" y="214.444"/>
<use xlink:href="#glyph-2-14" x="212.883102" y="214.444"/>
<use xlink:href="#glyph-2-6" x="216.469654" y="214.444"/>
</g>
<g fill="rgb(0%, 0%, 0%)" fill-opacity="1">
<use xlink:href="#glyph-2-11" x="224.575261" y="214.444"/>
<use xlink:href="#glyph-2-1" x="228.206645" y="214.444"/>
<use xlink:href="#glyph-2-5" x="232.304281" y="214.444"/>
<use xlink:href="#glyph-2-14" x="236.401916" y="214.444"/>
<use xlink:href="#glyph-2-4" x="239.988468" y="214.444"/>
<use xlink:href="#glyph-2-9" x="242.552853" y="214.444"/>
<use xlink:href="#glyph-2-2" x="247.161572" y="214.444"/>
</g>
<path fill-rule="nonzero" fill="rgb(97.499084%, 97.499084%, 97.499084%)" fill-opacity="1" stroke-width="0.3985" stroke-linecap="butt" stroke-linejoin="miter" stroke="rgb(0%, 0%, 0%)" stroke-opacity="1" stroke-miterlimit="10" d="M 47.905469 14.7625 L 150.522656 14.7625 L 150.522656 30.594531 L 47.905469 30.594531 Z M 47.905469 14.7625 " transform="matrix(1, 0, 0, -1, 122.45, 268.075)"/>
<g fill="rgb(0%, 0%, 0%)" fill-opacity="1">
<use xlink:href="#glyph-2-24" x="181.751" y="247.59"/>
<use xlink:href="#glyph-2-1" x="188.529583" y="247.59"/>
<use xlink:href="#glyph-2-11" x="192.627219" y="247.59"/>
<use xlink:href="#glyph-2-10" x="196.258603" y="247.59"/>
</g>
<g fill="rgb(0%, 0%, 0%)" fill-opacity="1">
<use xlink:href="#glyph-2-9" x="201.638431" y="247.59"/>
<use xlink:href="#glyph-2-2" x="206.24715" y="247.59"/>
<use xlink:href="#glyph-2-11" x="211.366953" y="247.59"/>
<use xlink:href="#glyph-2-1" x="214.998337" y="247.59"/>
</g>
<g fill="rgb(0%, 0%, 0%)" fill-opacity="1">
<use xlink:href="#glyph-2-5" x="222.081777" y="247.59"/>
<use xlink:href="#glyph-2-9" x="226.179413" y="247.59"/>
<use xlink:href="#glyph-2-0" x="230.788132" y="247.59"/>
<use xlink:href="#glyph-2-11" x="233.863601" y="247.59"/>
<use xlink:href="#glyph-2-1" x="237.494984" y="247.59"/>
<use xlink:href="#glyph-2-5" x="241.59262" y="247.59"/>
<use xlink:href="#glyph-2-14" x="245.690256" y="247.59"/>
<use xlink:href="#glyph-2-4" x="249.276808" y="247.59"/>
<use xlink:href="#glyph-2-9" x="251.841192" y="247.59"/>
<use xlink:href="#glyph-2-2" x="256.449912" y="247.59"/>
</g>
<path fill="none" stroke-width="0.3985" stroke-linecap="butt" stroke-linejoin="miter" stroke="rgb(0%, 0%, 0%)" stroke-opacity="1" stroke-miterlimit="10" d="M -57.938281 226.774219 L 43.124219 226.774219 " transform="matrix(1, 0, 0, -1, 122.45, 268.075)"/>
<path fill-rule="nonzero" fill="rgb(0%, 0%, 0%)" fill-opacity="1" stroke-width="0.3985" stroke-linecap="butt" stroke-linejoin="miter" stroke="rgb(0%, 0%, 0%)" stroke-opacity="1" stroke-miterlimit="10" d="M 3.762477 -0.00026125 C 3.297634 0.11302 1.27029 0.749739 0.00075875 1.445051 L 0.00075875 -1.445574 C 1.27029 -0.750261 3.297634 -0.113542 3.762477 -0.00026125 Z M 3.762477 -0.00026125 " transform="matrix(1, 0, 0, -1, 165.57346, 41.30052)"/>
<path fill="none" stroke-width="0.3985" stroke-linecap="butt" stroke-linejoin="miter" stroke="rgb(0%, 0%, 0%)" stroke-opacity="1" stroke-miterlimit="10" d="M -51.414844 192.758594 L 43.124219 192.758594 " transform="matrix(1, 0, 0, -1, 122.45, 268.075)"/>
<path fill-rule="nonzero" fill="rgb(0%, 0%, 0%)" fill-opacity="1" stroke-width="0.3985" stroke-linecap="butt" stroke-linejoin="miter" stroke="rgb(0%, 0%, 0%)" stroke-opacity="1" stroke-miterlimit="10" d="M 3.762477 0.00021375 C 3.297634 0.113495 1.27029 0.750214 0.00075875 1.445526 L 0.00075875 -1.445099 C 1.27029 -0.749786 3.297634 -0.113068 3.762477 0.00021375 Z M 3.762477 0.00021375 " transform="matrix(1, 0, 0, -1, 165.57346, 75.31662)"/>
<path fill="none" stroke-width="0.3985" stroke-linecap="butt" stroke-linejoin="miter" stroke="rgb(0%, 0%, 0%)" stroke-opacity="1" stroke-miterlimit="10" d="M -64.227344 158.742969 L 43.124219 158.742969 " transform="matrix(1, 0, 0, -1, 122.45, 268.075)"/>
<path fill-rule="nonzero" fill="rgb(0%, 0%, 0%)" fill-opacity="1" stroke-width="0.3985" stroke-linecap="butt" stroke-linejoin="miter" stroke="rgb(0%, 0%, 0%)" stroke-opacity="1" stroke-miterlimit="10" d="M 3.762477 0.00066875 C 3.297634 0.11395 1.27029 0.750669 0.00075875 1.445981 L 0.00075875 -1.444644 C 1.27029 -0.753238 3.297634 -0.112613 3.762477 0.00066875 Z M 3.762477 0.00066875 " transform="matrix(1, 0, 0, -1, 165.57346, 109.3327)"/>
<path fill="none" stroke-width="0.3985" stroke-linecap="butt" stroke-linejoin="miter" stroke="rgb(0%, 0%, 0%)" stroke-opacity="1" stroke-miterlimit="10" d="M -58.73125 124.727344 L 43.124219 124.727344 " transform="matrix(1, 0, 0, -1, 122.45, 268.075)"/>
<path fill-rule="nonzero" fill="rgb(0%, 0%, 0%)" fill-opacity="1" stroke-width="0.3985" stroke-linecap="butt" stroke-linejoin="miter" stroke="rgb(0%, 0%, 0%)" stroke-opacity="1" stroke-miterlimit="10" d="M 3.762477 0.00156375 C 3.297634 0.110939 1.27029 0.751564 0.00075875 1.446876 L 0.00075875 -1.447655 C 1.27029 -0.752342 3.297634 -0.111717 3.762477 0.00156375 Z M 3.762477 0.00156375 " transform="matrix(1, 0, 0, -1, 165.57346, 143.34922)"/>
<path fill="none" stroke-width="0.3985" stroke-linecap="butt" stroke-linejoin="miter" stroke="rgb(0%, 0%, 0%)" stroke-opacity="1" stroke-miterlimit="10" d="M -56.742969 90.707812 L 43.124219 90.707812 " transform="matrix(1, 0, 0, -1, 122.45, 268.075)"/>
<path fill-rule="nonzero" fill="rgb(0%, 0%, 0%)" fill-opacity="1" stroke-width="0.3985" stroke-linecap="butt" stroke-linejoin="miter" stroke="rgb(0%, 0%, 0%)" stroke-opacity="1" stroke-miterlimit="10" d="M 3.762477 -0.0018875 C 3.297634 0.111394 1.27029 0.752019 0.00075875 1.447331 L 0.00075875 -1.4472 C 1.27029 -0.751888 3.297634 -0.111263 3.762477 -0.0018875 Z M 3.762477 -0.0018875 " transform="matrix(1, 0, 0, -1, 165.57346, 177.3653)"/>
<path fill="none" stroke-width="0.3985" stroke-linecap="butt" stroke-linejoin="miter" stroke="rgb(0%, 0%, 0%)" stroke-opacity="1" stroke-miterlimit="10" d="M -66.246875 56.692187 L 43.124219 56.692187 " transform="matrix(1, 0, 0, -1, 122.45, 268.075)"/>
<path fill-rule="nonzero" fill="rgb(0%, 0%, 0%)" fill-opacity="1" stroke-width="0.3985" stroke-linecap="butt" stroke-linejoin="miter" stroke="rgb(0%, 0%, 0%)" stroke-opacity="1" stroke-miterlimit="10" d="M 3.762477 -0.0014325 C 3.297634 0.111849 1.27029 0.752474 0.00075875 1.447786 L 0.00075875 -1.446745 C 1.27029 -0.751433 3.297634 -0.110808 3.762477 -0.0014325 Z M 3.762477 -0.0014325 " transform="matrix(1, 0, 0, -1, 165.57346, 211.38138)"/>
<path fill="none" stroke-width="0.3985" stroke-linecap="butt" stroke-linejoin="miter" stroke="rgb(0%, 0%, 0%)" stroke-opacity="1" stroke-miterlimit="10" d="M -62.848438 22.676562 L 43.124219 22.676562 " transform="matrix(1, 0, 0, -1, 122.45, 268.075)"/>
<path fill-rule="nonzero" fill="rgb(0%, 0%, 0%)" fill-opacity="1" stroke-width="0.3985" stroke-linecap="butt" stroke-linejoin="miter" stroke="rgb(0%, 0%, 0%)" stroke-opacity="1" stroke-miterlimit="10" d="M 3.762477 -0.0009575 C 3.297634 0.112324 1.27029 0.752949 0.00075875 1.448261 L 0.00075875 -1.44627 C 1.27029 -0.750958 3.297634 -0.114239 3.762477 -0.0009575 Z M 3.762477 -0.0009575 " transform="matrix(1, 0, 0, -1, 165.57346, 245.39748)"/>
<path fill="none" stroke-width="0.3985" stroke-linecap="butt" stroke-linejoin="miter" stroke="rgb(0%, 0%, 0%)" stroke-opacity="1" stroke-dasharray="2.98883 2.98883" stroke-miterlimit="10" d="M 89.167187 234.809375 L 85.815625 237.492969 " transform="matrix(1, 0, 0, -1, 122.45, 268.075)"/>
<path fill-rule="nonzero" fill="rgb(0%, 0%, 0%)" fill-opacity="1" stroke-width="0.3985" stroke-linecap="butt" stroke-linejoin="miter" stroke="rgb(0%, 0%, 0%)" stroke-opacity="1" stroke-miterlimit="10" d="M 3.762253 -0.000587594 C 3.299801 0.11468 1.269393 0.751438 -0.00146692 1.445607 L -0.00000748399 -1.444965 C 1.269517 -0.749365 3.29982 -0.110441 3.762253 -0.000587594 Z M 3.762253 -0.000587594 " transform="matrix(-0.78078, -0.62473, -0.62473, 0.78078, 208.26525, 30.58132)"/>
</svg>
